<svg width="16" height="17" viewBox="0 0 16 17" fill="none" xmlns="http://www.w3.org/2000/svg">
<path fill-rule="evenodd" clip-rule="evenodd" d="M7.00017 1.2998C6.41669 1.2998 5.85712 1.53159 5.44454 1.94417C5.03196 2.35675 4.80017 2.91633 4.80017 3.4998V3.8542C4.16417 3.9158 3.53297 3.995 2.90817 4.0926C2.82917 4.10337 2.75311 4.12977 2.68442 4.17026C2.61574 4.21076 2.55582 4.26453 2.50816 4.32845C2.4605 4.39237 2.42606 4.46514 2.40684 4.54253C2.38763 4.61991 2.38403 4.70034 2.39626 4.77913C2.40849 4.85792 2.43629 4.93348 2.47806 5.0014C2.51982 5.06931 2.5747 5.12823 2.63949 5.17469C2.70428 5.22116 2.77769 5.25424 2.85541 5.27202C2.93314 5.28979 3.01362 5.29189 3.09217 5.2782L3.21137 5.2606L3.88417 13.675C3.92822 14.2264 4.17833 14.7409 4.5847 15.1161C4.99106 15.4914 5.52386 15.6997 6.07697 15.6998H9.92257C10.4757 15.7 11.0086 15.4918 11.4151 15.1167C11.8216 14.7416 12.0719 14.2272 12.1162 13.6758L12.789 5.2598L12.9082 5.2782C13.0639 5.29942 13.2218 5.25867 13.3478 5.1647C13.4738 5.07073 13.558 4.93105 13.5821 4.77571C13.6062 4.62037 13.5684 4.46177 13.4767 4.33403C13.3851 4.20628 13.247 4.11959 13.0922 4.0926C12.4639 3.99483 11.833 3.91533 11.2002 3.8542V3.4998C11.2002 2.91633 10.9684 2.35675 10.5558 1.94417C10.1432 1.53159 9.58365 1.2998 9.00017 1.2998H7.00017ZM8.00017 3.6998C8.67217 3.6998 9.33857 3.7198 10.0002 3.7598V3.4998C10.0002 2.9478 9.55217 2.4998 9.00017 2.4998H7.00017C6.44817 2.4998 6.00017 2.9478 6.00017 3.4998V3.7598C6.66177 3.7198 7.32817 3.6998 8.00017 3.6998ZM6.86417 6.6758C6.85781 6.51667 6.78849 6.36659 6.67146 6.25857C6.55444 6.15055 6.3993 6.09344 6.24017 6.0998C6.08104 6.10617 5.93096 6.17549 5.82294 6.29251C5.71492 6.40953 5.65781 6.56467 5.66417 6.7238L5.90417 12.7238C5.90732 12.8026 5.92596 12.88 5.95903 12.9516C5.99209 13.0232 6.03893 13.0876 6.09688 13.141C6.15482 13.1945 6.22273 13.2361 6.29673 13.2633C6.37074 13.2906 6.44938 13.303 6.52817 13.2998C6.60696 13.2967 6.68436 13.278 6.75595 13.2449C6.82754 13.2119 6.89192 13.165 6.94541 13.1071C6.99889 13.0492 7.04044 12.9812 7.06768 12.9072C7.09492 12.8332 7.10732 12.7546 7.10417 12.6758L6.86417 6.6758ZM10.3362 6.7238C10.3393 6.64501 10.3269 6.56637 10.2997 6.49237C10.2724 6.41837 10.2309 6.35045 10.1774 6.29251C10.1239 6.23457 10.0595 6.18773 9.98795 6.15466C9.91636 6.1216 9.83896 6.10296 9.76017 6.0998C9.60104 6.09344 9.4459 6.15055 9.32888 6.25857C9.21185 6.36659 9.14254 6.51667 9.13617 6.6758L8.89617 12.6758C8.89302 12.7546 8.90542 12.8332 8.93266 12.9072C8.9599 12.9812 9.00145 13.0492 9.05494 13.1071C9.10842 13.165 9.1728 13.2119 9.24439 13.2449C9.31598 13.278 9.39338 13.2967 9.47217 13.2998C9.55096 13.303 9.62961 13.2906 9.70361 13.2633C9.77761 13.2361 9.84552 13.1945 9.90346 13.141C9.96141 13.0876 10.0082 13.0232 10.0413 12.9516C10.0744 12.88 10.093 12.8026 10.0962 12.7238L10.3362 6.7238Z" fill="#FF3B30"/>
</svg>
