<svg width="56" height="57" viewBox="0 0 56 57" fill="none" xmlns="http://www.w3.org/2000/svg">
<path d="M13.125 4C10.7077 4 8.75 5.96 8.75 8.375V48.625C8.75 51.04 10.71 53 13.125 53H42.875C45.29 53 47.25 51.04 47.25 48.625V30.25C47.25 27.9294 46.3281 25.7038 44.6872 24.0628C43.0462 22.4219 40.8206 21.5 38.5 21.5H34.125C32.9647 21.5 31.8519 21.0391 31.0314 20.2186C30.2109 19.3981 29.75 18.2853 29.75 17.125V12.75C29.75 10.4294 28.8281 8.20376 27.1872 6.56282C25.5462 4.92187 23.3206 4 21 4H13.125Z" fill="#0E79B2"/>
<path d="M30.2656 4.7373C32.1942 6.96089 33.254 9.80658 33.25 12.75V17.125C33.25 17.608 33.642 18 34.125 18H38.5C41.4434 17.9959 44.289 19.0558 46.5126 20.9843C45.486 17.08 43.4409 13.5183 40.5862 10.6637C37.7316 7.80908 34.17 5.76389 30.2656 4.7373Z" fill="#0E79B2"/>
</svg>
