<svg width="44" height="39" viewBox="0 0 44 39" fill="none" xmlns="http://www.w3.org/2000/svg">
<path d="M10.1318 3.92676C14.3956 -0.970485 22.1939 -0.442817 25.7461 4.99805C26.7862 4.43163 27.947 4.13574 29.1494 4.13574C33.1374 4.13599 36.3249 7.4103 36.2871 11.333C40.3034 11.7738 43.4375 15.1865 43.4375 19.3184C43.4372 23.6098 40.0558 27.1251 35.8174 27.3408L35.4043 27.3516H32.7236C32.2353 27.3516 31.8389 26.9551 31.8389 26.4668C31.8389 25.9785 32.2353 25.582 32.7236 25.582H35.4043C38.8579 25.582 41.6687 22.7719 41.6689 19.3184C41.6689 15.8646 38.8581 13.0537 35.4043 13.0537H35.3398C35.1158 13.0537 34.901 12.9684 34.7383 12.8174L34.6719 12.748C34.5042 12.5545 34.4281 12.2974 34.4648 12.043L34.5059 11.6562C34.5151 11.528 34.5205 11.4007 34.5205 11.2754C34.5205 8.31448 32.1103 5.90446 29.1494 5.9043C28.0685 5.9043 27.036 6.22017 26.1475 6.82129L25.9717 6.94531C25.5633 7.24541 24.9941 7.13973 24.7168 6.73047L24.665 6.64453C22.0151 1.59859 15.1605 0.851987 11.4697 5.08398L11.2969 5.28906C9.76116 7.16781 9.15795 9.61048 9.6416 11.9932L9.65625 12.0957C9.69969 12.604 9.29753 13.0537 8.77441 13.0537H8.5957C5.14197 13.0537 2.33105 15.8646 2.33105 19.3184C2.33112 22.772 5.14201 25.583 8.5957 25.583H11.2764C11.7646 25.583 12.1609 25.9786 12.1611 26.4668C12.1611 26.9551 11.7647 27.3516 11.2764 27.3516H8.5957C4.16595 27.3515 0.562586 23.7481 0.5625 19.3184C0.5625 15.172 3.71921 11.7504 7.75586 11.3291C7.50547 8.75664 8.27328 6.19418 9.92773 4.16992L10.1318 3.92676Z" fill="#036084" stroke="#036084" stroke-width="0.875"/>
<path d="M21.9399 14.6055C28.3408 14.6055 33.5481 19.8121 33.5483 26.2129C33.5483 32.6138 28.3409 37.8213 21.9399 37.8213C15.5392 37.8211 10.3325 32.6137 10.3325 26.2129C10.3327 19.8123 15.5393 14.6057 21.9399 14.6055ZM21.9399 16.374C16.5154 16.3742 12.1013 20.7885 12.1011 26.2129C12.1011 31.6376 16.5154 36.0525 21.9399 36.0527C27.3647 36.0527 31.7798 31.6376 31.7798 26.2129C31.7796 20.7882 27.3646 16.374 21.9399 16.374Z" fill="#036084" stroke="#036084" stroke-width="0.875"/>
<path d="M22.2227 21.4453C22.6082 21.4845 22.9092 21.8102 22.9092 22.2061V30.7109C22.9092 31.1336 22.5666 31.4756 22.1445 31.4756C21.7223 31.4756 21.3799 31.1332 21.3799 30.7109V22.2061C21.3799 21.7838 21.7223 21.4414 22.1445 21.4414L22.2227 21.4453Z" fill="#036084" stroke="#036084" stroke-width="0.875"/>
<path d="M21.6035 21.666C21.8836 21.3855 22.3267 21.3682 22.627 21.6133L22.6846 21.665L25.3018 24.2822L25.3545 24.3408C25.599 24.6409 25.581 25.0824 25.3018 25.3623L25.3027 25.3633C25.1903 25.4761 25.0507 25.5454 24.9062 25.5732L24.7607 25.5879C24.5903 25.5878 24.4184 25.5302 24.2783 25.416L24.2207 25.3633L22.1445 23.2871L20.0684 25.3633C19.7884 25.6438 19.3452 25.6609 19.0449 25.416L18.9863 25.3633C18.6881 25.0646 18.6879 24.5808 18.9863 24.2822L21.6035 21.665V21.666Z" fill="#036084" stroke="#036084" stroke-width="0.875"/>
</svg>
